<?xml version="1.0" standalone="no"?>
<!DOCTYPE svg PUBLIC "-//W3C//DTD SVG 20010904//EN"
 "http://www.w3.org/TR/2001/REC-SVG-20010904/DTD/svg10.dtd">
<svg version="1.0" xmlns="http://www.w3.org/2000/svg"
 width="300.000000pt" height="92.000000pt" viewBox="0 0 300.000000 92.000000"
 preserveAspectRatio="xMidYMid meet">

<g transform="translate(0.000000,92.000000) scale(0.100000,-0.100000)"
fill="#8b0000" stroke="none">
<path d="M255 877 c-40 -40 -44 -68 -13 -97 24 -22 36 -24 57 -11 17 11 5 32
-17 29 -11 -2 -18 5 -20 20 -7 50 50 70 88 32 25 -25 26 -69 4 -136 -20 -58
-31 -74 -52 -74 -27 0 -104 -44 -129 -75 -24 -27 -25 -35 -20 -101 3 -40 10
-82 17 -93 9 -18 8 -22 -7 -27 -45 -16 -100 -46 -125 -69 -35 -32 -46 -89 -25
-124 21 -37 104 -84 205 -117 84 -28 94 -29 277 -28 167 0 197 3 252 21 158
55 223 105 223 171 0 43 -19 69 -75 106 -22 14 -34 26 -28 26 18 0 53 83 53
126 0 74 -72 144 -149 144 -49 0 -35 -31 21 -45 37 -9 74 -49 82 -86 13 -64
-43 -134 -101 -127 l-28 4 36 16 c71 31 89 91 40 136 -16 15 -51 47 -78 72
-63 59 -128 80 -264 87 l-106 6 18 66 c22 78 13 120 -29 150 -52 36 -69 36
-107 -2z m372 -283 c91 -31 126 -72 96 -113 -14 -20 -14 -20 -44 13 -16 19
-48 41 -71 51 -54 21 -163 30 -210 17 -37 -10 -38 -10 -38 18 0 23 5 30 28 33
48 9 190 -3 239 -19z m-316 -59 c-9 -5 -30 -24 -47 -42 -30 -30 -33 -31 -48
-14 -24 27 -19 47 19 78 51 41 79 45 86 14 4 -18 1 -29 -10 -36z m272 -18 c22
-6 53 -24 70 -40 l31 -29 -34 -14 c-87 -37 -265 -39 -352 -5 -36 14 -35 23 4
56 l32 27 19 -26 c16 -23 65 -56 82 -56 18 0 0 32 -25 45 -16 9 -30 20 -30 25
0 6 0 13 0 18 -1 22 127 22 203 -1z m214 -91 c-12 -30 -23 -16 -19 22 4 34 6
35 15 15 5 -12 7 -29 4 -37z m-85 -59 c-42 -95 -141 -160 -242 -160 -64 0
-147 34 -194 79 -27 25 -72 111 -64 119 2 3 32 -7 67 -21 112 -46 331 -37 416
16 16 10 31 17 33 15 2 -2 -5 -23 -16 -48z m-551 -92 c-50 -23 -87 -57 -103
-94 -4 -10 -7 -5 -7 16 -1 34 25 59 91 88 58 25 75 16 19 -10z m753 -47 c30
-43 16 -51 -19 -11 -19 22 -48 46 -65 53 -16 7 -30 16 -30 21 0 15 97 -39 114
-63z m-107 17 c56 -25 88 -63 79 -93 -17 -51 -196 -92 -398 -91 -197 0 -363
35 -392 81 -20 32 4 69 67 101 l57 30 26 -24 c14 -13 33 -41 41 -62 19 -47 70
-75 152 -83 111 -12 221 35 221 94 0 15 12 38 27 54 30 31 35 31 120 -7z
m-177 -55 c0 -18 -46 -40 -104 -51 -69 -12 -154 2 -188 32 -21 19 -21 20 -3
14 89 -31 195 -32 250 -2 35 19 45 21 45 7z"/>
<path d="M1262 593 c-18 -8 -46 -31 -62 -50 -26 -29 -30 -42 -30 -91 0 -50 4
-63 32 -96 38 -46 81 -66 143 -66 45 0 116 28 131 51 3 6 0 18 -9 26 -13 13
-17 13 -38 0 -64 -41 -156 -28 -190 27 -38 62 -10 136 60 157 45 13 103 6 121
-16 7 -8 23 -15 37 -15 20 0 24 4 21 26 -7 56 -139 85 -216 47z"/>
<path d="M1593 589 c-90 -44 -115 -161 -51 -235 40 -45 82 -64 143 -64 120 0
200 105 163 215 -10 30 -26 48 -62 73 -60 40 -128 44 -193 11z m145 -45 c42
-16 62 -47 62 -94 0 -49 -20 -78 -66 -96 -82 -31 -161 6 -170 81 -6 51 12 85
56 107 43 22 68 22 118 2z"/>
<path d="M1994 591 c-61 -28 -89 -73 -89 -143 0 -69 22 -103 85 -135 63 -33
134 -31 188 4 47 31 50 38 23 52 -13 8 -28 5 -57 -9 -45 -24 -73 -25 -118 -6
-43 18 -66 51 -66 97 0 47 30 85 80 100 44 13 109 4 117 -17 3 -7 16 -14 29
-14 20 0 24 5 24 29 0 24 -6 31 -40 45 -53 21 -125 20 -176 -3z"/>
<path d="M2254 595 c-9 -23 4 -48 21 -41 13 4 15 -10 15 -98 0 -97 -1 -104
-21 -109 -15 -4 -20 -12 -17 -29 3 -21 9 -23 66 -26 l62 -3 0 31 c0 23 -4 30
-20 30 -17 0 -20 7 -20 40 l0 40 85 0 85 0 0 -40 c0 -29 -4 -40 -15 -40 -10 0
-15 -10 -15 -30 l0 -30 60 0 60 0 0 30 c0 20 -5 30 -15 30 -12 0 -15 18 -15
105 0 79 3 104 13 102 7 -1 13 10 15 26 3 27 3 27 -58 27 -61 0 -61 0 -58 -27
2 -16 8 -27 16 -26 8 2 12 -9 12 -32 l0 -35 -85 0 -85 0 0 29 c0 20 6 30 20
34 14 3 20 14 20 31 0 25 -2 26 -60 26 -45 0 -62 -4 -66 -15z"/>
<path d="M2710 586 c0 -13 5 -26 11 -28 18 -6 -42 -200 -63 -206 -12 -3 -18
-14 -18 -33 0 -29 1 -29 60 -29 57 0 60 1 60 25 0 13 -7 28 -16 33 -34 19 -3
32 77 32 61 0 79 -3 79 -14 0 -8 -7 -17 -16 -20 -9 -3 -14 -15 -12 -28 3 -21
9 -23 66 -26 61 -3 62 -3 62 23 0 18 -6 29 -19 32 -20 5 -25 20 -78 200 l-18
63 -87 0 c-86 0 -88 0 -88 -24z m151 -91 l17 -55 -63 0 -63 0 20 54 c15 40 26
56 42 58 28 5 27 5 47 -57z"/>
</g>
</svg>
